<svg xmlns="http://www.w3.org/2000/svg" version="1.1" xmlns:xlink="http://www.w3.org/1999/xlink" width="1500" height="1500" viewBox="0 0 1500 1500"><rect width="1500" height="1500" fill="#f2dbc2"></rect><g transform="matrix(0.6666666666666666,0,0,0.6666666666666666,250,437.6666666666667)"><svg viewBox="0 0 512 320" data-background-color="#f2dbc2" preserveAspectRatio="xMidYMid meet" height="937" width="1500" xmlns="http://www.w3.org/2000/svg" xmlns:xlink="http://www.w3.org/1999/xlink"><g id="tight-bounds" transform="matrix(1,0,0,1,0,0)"><svg viewBox="0 0 512 320" height="320" width="512"><g><svg></svg></g><g><svg viewBox="0 0 512 320" height="320" width="512"><g><path d="M96 160c0-88.366 71.634-160 160-160 88.366 0 160 71.634 160 160 0 88.366-71.634 160-160 160-88.366 0-160-71.634-160-160zM256 318.087c87.309 0 158.087-70.778 158.087-158.087 0-87.309-70.778-158.087-158.087-158.087-87.309 0-158.087 70.778-158.087 158.087 0 87.309 70.778 158.087 158.087 158.087z" fill="#473829" fill-rule="nonzero" stroke="none" stroke-width="1" stroke-linecap="butt" stroke-linejoin="miter" stroke-miterlimit="10" stroke-dasharray="" stroke-dashoffset="0" font-family="none" font-weight="none" font-size="none" text-anchor="none" style="mix-blend-mode: normal" data-fill-palette-color="tertiary"></path></g><g transform="matrix(1,0,0,1,116.13999999999999,20.139999999999986)"><svg viewBox="0 0 279.72 279.72" height="279.72" width="279.72"><g><svg viewBox="0 0 279.72 279.72" height="279.72" width="279.72"><g><svg viewBox="0 0 279.72 279.72" height="279.72" width="279.72"><g id="textblocktransform"><svg viewBox="0 0 279.72 279.72" height="279.72" width="279.72" id="textblock"><g><svg viewBox="0 0 279.72 279.72" height="279.72" width="279.72"><g transform="matrix(1,0,0,1,77.68029330710979,68.65491281993961)"><svg viewBox="0 0 124.35941338578046 142.4101743601208" height="142.4101743601208" width="124.35941338578046"><g id="icon-0"><svg xmlns="http://www.w3.org/2000/svg" xmlns:xlink="http://www.w3.org/1999/xlink" version="1.1" x="0" y="0" viewBox="7.841000000000001 0.915 85.23600000000002 97.608" enable-background="new 0 0 100 100" xml:space="preserve" height="142.4101743601208" width="124.35941338578046" class="icon-xg-0" data-fill-palette-color="accent" id="xg-0"><g fill="#b771d6" data-fill-palette-color="accent"><path d="M55.329 11.96c-0.95 3.119 2.903 7.1 8.608 8.895 5.705 1.794 11.101 0.723 12.049-2.396 0.949-3.117-2.904-7.099-8.611-8.895C61.671 7.771 56.279 8.842 55.329 11.96L55.329 11.96zM39.2 79.551h22.509c7.332 0 13.277-5.943 13.277-13.279l-0.004-14.77H25.928l-0.004 14.77C25.924 73.607 31.866 79.551 39.2 79.551L39.2 79.551zM47.688 0.915h2.767 2.77c29.131 0 39.842 17.838 39.842 39.841l0.01 44.49c0 7.33-5.945 13.277-13.28 13.277h-2.34c-0.597-1.764-1.056-2.91-1.302-3.451-1.896-4.131-5.562-9.434-17.067-9.434h-17.26c-11.503 0-15.171 5.303-17.065 9.434-0.252 0.541-0.705 1.689-1.302 3.451h-2.341c-7.332 0-13.279-5.947-13.279-13.277l0.01-44.49C7.847 18.752 18.561 0.915 47.688 0.915L47.688 0.915zM69.229 58.729c0.062-0.043-9.056 0.18-9.039 0.188C62.191 57.033 66.341 57.332 69.229 58.729L69.229 58.729zM50.45 67.084c-1.091 0-2.577-1.117-2.601-2.727-0.035-2.334 2.601-1.266 2.597-0.232 0.004-1.031 2.644-2.102 2.604 0.232C53.025 65.967 51.544 67.084 50.45 67.084L50.45 67.084zM31.677 58.729c2.893-1.396 7.039-1.693 9.04 0.188C40.735 58.906 31.616 58.686 31.677 58.729L31.677 58.729z" fill="#b771d6" data-fill-palette-color="accent"></path></g></svg></g></svg></g><g id="text-0"><path d="M18.478 78.318l13.949 5.131c1.776 0.653 2.926 1.438 3.45 2.353 0.524 0.915 0.548 2.019 0.073 3.31v0c-0.468 1.273-1.157 2.08-2.067 2.42-0.91 0.34-2.24 0.188-3.992-0.457v0l-3.73-1.341-2.468 6.711 3.482 1.281c1.8 0.662 2.96 1.44 3.478 2.332 0.52 0.887 0.534 2 0.042 3.34v0c-0.468 1.273-1.156 2.076-2.064 2.41-0.91 0.34-2.24 0.188-3.992-0.457v0l-13.923-5.008c-1.364-0.502-2.237-1.215-2.619-2.141-0.376-0.923-0.355-1.954 0.064-3.094v0c0.484-1.315 1.081-2.2 1.793-2.654 0.715-0.446 1.806-0.399 3.272 0.14v0l5.529 2.034 2.455-6.674-5.228-1.924c-0.921-0.339-1.623-0.79-2.104-1.352-0.475-0.56-0.741-1.157-0.798-1.79-0.05-0.631 0.062-1.319 0.337-2.065v0c0.466-1.267 1.058-2.137 1.775-2.609 0.724-0.47 1.819-0.436 3.286 0.104z" fill="#473829" data-fill-palette-color="primary"></path><path d="M42.771 68.618v0c0.455-0.659 0.557-1.421 0.306-2.285-0.253-0.873-0.732-1.703-1.437-2.488-0.706-0.786-1.539-1.511-2.502-2.175v0c-0.978-0.675-1.979-1.21-3.003-1.603-1.024-0.393-2.003-0.567-2.937-0.521-0.943 0.047-1.635 0.39-2.075 1.028v0c-0.422 0.611-0.485 1.361-0.188 2.249 0.292 0.885 0.803 1.748 1.533 2.589 0.721 0.843 1.562 1.597 2.524 2.261v0c0.962 0.664 1.943 1.177 2.942 1.538 0.996 0.366 1.946 0.512 2.853 0.439 0.901-0.077 1.562-0.421 1.984-1.032zM49.378 65.633c-0.29 2.045-1.088 4.014-2.395 5.906-1.31 1.897-2.867 3.339-4.67 4.323-1.803 0.985-3.776 1.404-5.919 1.257-2.144-0.146-4.245-0.93-6.302-2.35v0c-3.115-2.151-4.944-4.8-5.487-7.946-0.538-3.143 0.221-6.202 2.276-9.178 2.059-2.982 4.657-4.783 7.794-5.404 3.138-0.612 6.265 0.158 9.38 2.309v0c2.057 1.421 3.532 3.11 4.424 5.069 0.889 1.964 1.188 3.969 0.899 6.014z" fill="#473829" data-fill-palette-color="primary"></path><path d="M63.222 46.568v0c0.607-0.522 0.899-1.233 0.874-2.133-0.023-0.909-0.277-1.832-0.761-2.771-0.484-0.939-1.107-1.851-1.869-2.737v0c-0.775-0.901-1.608-1.671-2.499-2.311-0.891-0.639-1.794-1.055-2.71-1.247-0.924-0.193-1.681-0.037-2.268 0.469v0c-0.563 0.484-0.813 1.194-0.751 2.128 0.059 0.93 0.334 1.894 0.828 2.893 0.484 0.998 1.107 1.94 1.869 2.826v0c0.763 0.886 1.582 1.63 2.458 2.232 0.871 0.606 1.753 0.988 2.648 1.147 0.891 0.154 1.618-0.011 2.181-0.496zM70.369 45.352c-0.798 1.905-2.068 3.608-3.812 5.107-1.748 1.504-3.619 2.504-5.611 3.001-1.993 0.496-4.008 0.402-6.046-0.282-2.037-0.684-3.871-1.974-5.501-3.868v0c-2.469-2.869-3.568-5.895-3.297-9.076 0.275-3.176 1.783-5.944 4.525-8.304 2.747-2.364 5.716-3.448 8.908-3.255 3.191 0.203 6.021 1.739 8.489 4.608v0c1.63 1.895 2.63 3.903 2.998 6.024 0.363 2.125 0.145 4.14-0.653 6.045z" fill="#473829" data-fill-palette-color="primary"></path><path d="M89.517 22.279v0c1.127-0.42 2.366-0.376 3.718 0.133 1.358 0.506 2.411 1.496 3.16 2.97v0c0.731 1.44 1.17 2.561 1.317 3.363 0.149 0.808 0.039 1.469-0.33 1.982-0.369 0.514-1.064 1.029-2.084 1.547v0c-0.812 0.412-1.542 0.638-2.188 0.677-0.653 0.042-1.215-0.096-1.688-0.414-0.476-0.323-0.893-0.839-1.253-1.548v0c-0.465-0.916-0.891-1.663-1.28-2.241-0.388-0.578-0.731-1.02-1.03-1.324-0.294-0.307-0.604-0.497-0.931-0.571-0.327-0.073-0.613-0.08-0.858-0.02-0.245 0.059-0.555 0.184-0.93 0.374v0l-1.658 0.842 1.763 3.473c0.845 1.664 1.128 3.02 0.849 4.068-0.28 1.047-1.044 1.889-2.294 2.523v0c-1.209 0.614-2.275 0.728-3.196 0.34-0.912-0.384-1.776-1.38-2.593-2.986v0l-6.619-13.037c-0.664-1.307-0.918-2.414-0.762-3.319 0.156-0.905 0.787-1.638 1.893-2.2v0c0.645-0.328 1.201-0.559 1.669-0.695 0.47-0.13 0.965-0.189 1.485-0.178 0.511 0.008 0.988 0.198 1.429 0.567 0.433 0.367 0.835 0.916 1.206 1.648v0c0.328 0.645 0.689 1.371 1.084 2.177 0.398 0.812 0.682 1.385 0.851 1.72v0c0.137 0.271 0.322 0.463 0.554 0.577 0.229 0.123 0.514 0.17 0.855 0.142 0.341-0.028 0.718-0.147 1.133-0.358v0c0.898-0.456 1.318-1.115 1.257-1.975-0.054-0.863-0.637-2.389-1.749-4.578v0c-0.553-1.089-0.67-2.04-0.351-2.853 0.324-0.817 1.131-1.553 2.422-2.208v0c1.394-0.708 2.47-0.914 3.228-0.618 0.753 0.299 1.483 1.145 2.191 2.539v0c1.164 2.292 1.663 4.274 1.497 5.944-0.16 1.668-0.749 2.84-1.767 3.517z" fill="#473829" data-fill-palette-color="primary"></path><path d="M108.668 13.262l5.847-1.459c1.203-0.3 2.098-0.317 2.684-0.05 0.578 0.262 0.983 0.857 1.214 1.784v0c0.192 0.771 0.042 1.394-0.452 1.87-0.495 0.47-1.354 0.857-2.576 1.163v0l-5.519 1.376 0.901 3.61 7.396-1.815c1.266-0.316 2.225-0.355 2.877-0.119 0.645 0.238 1.087 0.834 1.324 1.787v0c0.272 1.091 0.139 1.929-0.401 2.517-0.538 0.594-1.465 1.054-2.78 1.382v0l-11.018 2.749c-1.335 0.333-2.405 0.221-3.21-0.337-0.799-0.56-1.424-1.745-1.876-3.556v0l-3.582-14.356c-0.679-2.72 0.273-4.402 2.856-5.046v0l11.017-2.749c1.316-0.328 2.348-0.369 3.095-0.123 0.747 0.246 1.254 0.902 1.52 1.967v0c0.249 0.997 0.146 1.761-0.307 2.294-0.458 0.54-1.32 0.968-2.585 1.284v0l-7.418 1.851z" fill="#473829" data-fill-palette-color="primary"></path><path d="M136.058 4.897l0.278 14.337c0.607-0.012 1.135-0.087 1.585-0.225 0.456-0.138 0.884-0.379 1.284-0.723 0.407-0.35 0.731-0.809 0.972-1.375 0.248-0.56 0.44-1.281 0.578-2.163 0.131-0.881 0.186-1.916 0.163-3.104v0c-0.026-1.337-0.164-2.462-0.415-3.374-0.25-0.919-0.603-1.616-1.058-2.092-0.455-0.469-0.946-0.799-1.473-0.989-0.527-0.184-1.165-0.281-1.914-0.292zM131.865 0.103l5.144-0.099c3.649-0.071 6.598 0.925 8.848 2.987 2.249 2.056 3.41 4.931 3.482 8.625v0c0.023 1.195-0.067 2.353-0.272 3.475-0.198 1.128-0.545 2.23-1.041 3.305-0.49 1.069-1.114 2.002-1.874 2.799-0.753 0.803-1.723 1.455-2.908 1.955-1.179 0.501-2.518 0.766-4.016 0.796v0l-6.897 0.133c-1.427 0.028-2.458-0.314-3.092-1.025-0.634-0.711-0.969-2.013-1.006-3.905v0l-0.288-14.793c-0.054-2.783 1.253-4.201 3.92-4.253z" fill="#473829" data-fill-palette-color="primary"></path><path d="M178.619 9.897l-1.439 4.575c1.816-0.627 3.58-0.671 5.293-0.132v0c1.744 0.549 2.963 1.742 3.658 3.579 0.695 1.837 0.689 3.88-0.019 6.129v0c-0.857 2.723-2.406 4.569-4.647 5.536-2.243 0.974-4.769 1.018-7.579 0.134v0c-1.713-0.539-3.134-1.254-4.262-2.143-1.127-0.896-1.899-1.949-2.318-3.157-0.413-1.207-0.413-2.507-0.002-3.901v0l3.902-12.627c0.434-1.38 1.086-2.289 1.955-2.727 0.875-0.436 1.87-0.478 2.986-0.127v0c1.245 0.392 2.07 0.976 2.475 1.754 0.405 0.778 0.404 1.813-0.003 3.107zM174.239 23.948v0c0.162 0.884 0.6 1.438 1.315 1.663v0c0.598 0.188 1.185-0.043 1.762-0.694 0.571-0.653 1.011-1.47 1.32-2.45v0c0.169-0.536 0.287-1.074 0.355-1.615 0.075-0.539 0.1-1.038 0.076-1.499-0.03-0.463-0.128-0.863-0.293-1.2-0.161-0.328-0.398-0.542-0.712-0.64v0c-0.69-0.217-1.365 0.024-2.026 0.723v0c-0.091 0.29-0.352 1.118-0.782 2.487-0.432 1.374-0.771 2.449-1.015 3.225z" fill="#b771d6" data-fill-palette-color="accent"></path><path d="M207.839 34.612v0c-1.937 3.491-3.395 5.873-4.374 7.146v0c-0.851 1.161-1.703 2.098-2.558 2.814-0.855 0.715-1.794 1.25-2.819 1.605-1.024 0.355-2.123 0.432-3.297 0.232-1.171-0.192-2.432-0.662-3.783-1.411v0c-1.085-0.602-2.002-1.318-2.753-2.148-0.757-0.833-1.277-1.632-1.562-2.396-0.288-0.758-0.46-1.448-0.515-2.069-0.057-0.615 0.005-1.087 0.187-1.415 0.182-0.328 0.457-0.57 0.825-0.728 0.368-0.158 0.736-0.135 1.103 0.069v0c0.265 0.147 0.531 0.402 0.795 0.763 0.265 0.361 0.505 0.734 0.72 1.12 0.215 0.385 0.503 0.785 0.864 1.199 0.355 0.411 0.748 0.736 1.177 0.974v0c1.107 0.614 2.041 0.774 2.803 0.48 0.77-0.297 1.439-0.956 2.006-1.978v0c-0.429-0.053-0.835-0.12-1.219-0.2-0.387-0.074-0.749-0.168-1.085-0.281-0.339-0.107-0.654-0.226-0.943-0.357-0.286-0.137-0.562-0.279-0.828-0.425v0c-1.203-0.667-2.048-1.575-2.533-2.724-0.486-1.148-0.642-2.325-0.469-3.529 0.17-1.198 0.573-2.371 1.209-3.518v0c0.636-1.147 1.189-2.11 1.659-2.891 0.476-0.778 0.937-1.449 1.383-2.014 0.446-0.565 0.838-0.998 1.175-1.298 0.339-0.292 0.695-0.486 1.066-0.583 0.38-0.099 0.745-0.104 1.093-0.014 0.352 0.084 0.743 0.246 1.172 0.484v0c1.288 0.714 2.069 1.436 2.345 2.165 0.281 0.732 0.161 1.567-0.359 2.504v0l-2.715 4.954c-0.182 0.328-0.315 0.568-0.399 0.72-0.085 0.153-0.173 0.351-0.264 0.596-0.094 0.236-0.145 0.422-0.154 0.557-0.006 0.13 0.008 0.278 0.041 0.444 0.031 0.157 0.11 0.301 0.238 0.431 0.131 0.124 0.309 0.249 0.535 0.374v0c0.61 0.338 1.088 0.382 1.434 0.131 0.341-0.254 0.76-0.831 1.258-1.728v0l2.78-4.951c0.351-0.633 0.742-1.084 1.172-1.355 0.428-0.265 0.957-0.359 1.587-0.283 0.621 0.079 1.372 0.362 2.253 0.851v0c0.531 0.295 0.937 0.634 1.219 1.019 0.281 0.385 0.458 0.779 0.53 1.181 0.07 0.393 0.011 0.892-0.177 1.497-0.188 0.605-0.416 1.195-0.683 1.771-0.259 0.573-0.639 1.311-1.14 2.215z" fill="#b771d6" data-fill-palette-color="accent"></path><path d="M231.984 66.866l6.903-6.059-9.631 2.627c-0.81 0.213-1.473 0.266-1.988 0.16-0.51-0.111-0.959-0.387-1.347-0.83v0c-0.494-0.563-0.713-1.209-0.656-1.937 0.052-0.734 0.329-1.862 0.831-3.386v0l2.871-7.935-7.456 6.545c-0.752 0.66-1.457 0.974-2.114 0.94-0.648-0.033-1.272-0.392-1.873-1.076v0c-0.678-0.772-1-1.486-0.966-2.143 0.033-0.648 0.55-1.411 1.549-2.288v0l11.491-10.087c1.35-1.185 2.637-1.774 3.864-1.767 1.226 0.016 2.478 0.752 3.756 2.208v0c0.482 0.549 0.807 1.105 0.976 1.67 0.169 0.565 0.224 1.054 0.165 1.466-0.063 0.408-0.184 0.862-0.363 1.364v0l-4.619 10.307 10.873-2.918c1.829-0.462 3.485 0.151 4.968 1.841v0c0.695 0.791 1.151 1.585 1.369 2.382 0.222 0.802 0.173 1.632-0.148 2.489-0.321 0.858-0.938 1.687-1.851 2.489v0l-11.461 10.061c-1.755 1.506-3.587 1.172-5.496-1.003v0c-0.695-0.791-1.045-1.627-1.052-2.506-0.012-0.875 0.457-1.746 1.405-2.614z" fill="#473829" data-fill-palette-color="primary"></path><path d="M240.431 87.622v0c-1.296-2.537-1.712-4.968-1.248-7.295 0.468-2.321 1.838-4.062 4.11-5.223v0c2.45-1.252 4.806-1.426 7.067-0.522 2.261 0.904 4.05 2.645 5.367 5.222v0c1.246 2.439 1.728 4.445 1.445 6.019-0.284 1.574-1.176 2.745-2.678 3.512v0c-0.288 0.147-0.586 0.252-0.894 0.316-0.306 0.069-0.63 0.094-0.974 0.073-0.338-0.023-0.684-0.111-1.038-0.264-0.351-0.147-0.701-0.342-1.05-0.584-0.343-0.245-0.68-0.57-1.009-0.975-0.327-0.413-0.623-0.878-0.888-1.396v0l-2.279-4.395c-0.558 0.554-0.892 1.2-1.001 1.937-0.109 0.738 0.05 1.523 0.476 2.357v0c0.456 0.892 1.038 1.747 1.747 2.568v0c0.306 0.344 0.694 0.69 1.162 1.038 0.462 0.351 0.748 0.633 0.857 0.846v0c0.179 0.351 0.217 0.68 0.112 0.987-0.107 0.301-0.316 0.531-0.626 0.69v0c-0.374 0.191-0.913 0.257-1.619 0.196-0.7-0.063-1.465-0.256-2.298-0.577-0.832-0.322-1.688-0.875-2.567-1.659-0.874-0.787-1.599-1.744-2.174-2.871zM248.276 80.936v0c0.758 1.426 1.169 2.203 1.233 2.329v0c0.159 0.311 0.462 0.442 0.91 0.395v0c0.323-0.035 0.724-0.174 1.201-0.418v0c1.311-0.67 1.766-1.399 1.363-2.187v0c-0.15-0.293-0.452-0.502-0.907-0.625-0.457-0.114-1.025-0.132-1.704-0.054-0.681 0.087-1.38 0.274-2.096 0.56z" fill="#473829" data-fill-palette-color="primary"></path><path d="M266.317 92.401v0c0.73-0.242 1.438-0.127 2.126 0.346 0.688 0.473 1.223 1.286 1.605 2.439v0c0.801 2.416 0.359 3.903-1.327 4.462v0c-0.932 0.309-1.689 0.223-2.27-0.258-0.577-0.489-1.064-1.331-1.461-2.526v0c-0.346-1.042-0.433-1.973-0.262-2.792 0.171-0.819 0.701-1.376 1.589-1.671zM260.426 102.369l-8.653 2.871c-1.33 0.441-2.349 0.47-3.055 0.084-0.704-0.379-1.288-1.267-1.752-2.665v0c-0.435-1.312-0.428-2.305 0.023-2.978 0.454-0.682 1.381-1.254 2.778-1.718v0l8.185-2.715c1.134-0.376 2.145-0.375 3.033 0.004 0.89 0.385 1.504 1.087 1.841 2.105v0c0.399 1.202 0.447 2.22 0.146 3.055-0.299 0.841-1.148 1.494-2.546 1.957z" fill="#473829" data-fill-palette-color="primary"></path><path d="M7.525 137.887c0-5.119 4.15-9.268 9.269-9.269 5.119 0 9.268 4.15 9.268 9.269 0 5.119-4.15 9.268-9.268 9.268-5.119 0-9.268-4.15-9.269-9.268z" fill="#473829" data-fill-palette-color="primary"></path><path d="M251.452 137.887c0-5.119 4.15-9.268 9.268-9.269 5.119 0 9.268 4.15 9.269 9.269 0 5.119-4.15 9.268-9.269 9.268-5.119 0-9.268-4.15-9.268-9.268z" fill="#473829" data-fill-palette-color="primary"></path></g><g id="text-1"><path d="M23.238 176.183c-0.384-0.234-1.311-0.589-2.78-1.063-1.461-0.471-2.694-0.714-3.7-0.729-1.008-0.021-1.798 0.069-2.37 0.272-0.566 0.2-0.763 0.547-0.588 1.04 0.174 0.493 0.771 1.06 1.792 1.7v0c1.695 1.018 4.469 1.861 8.321 2.529v0c0.188 0.029 0.326 0.166 0.412 0.409 0.084 0.238 0.136 0.589 0.157 1.054 0.029 0.469-0.061 0.741-0.268 0.814v0c-0.067 0.024-0.143 0.023-0.227-0.002v0c-1.891-0.408-3.861-0.391-5.91 0.052v0c-0.696 0.143-1.192 0.445-1.489 0.906v0c-0.309 0.445-0.049 1.035 0.779 1.77v0c1.205 1.164 2.768 2.068 4.687 2.712 1.919 0.644 3.534 0.89 4.843 0.736v0c0.282 0.003 0.572-0.048 0.871-0.153v0c1.273-0.449 1.918-1.088 1.933-1.916v0c0.018-0.239-0.032-0.479-0.15-0.718-0.125-0.237-0.168-0.389-0.131-0.457 0.046-0.064 0.106-0.099 0.179-0.104v0c0.224-0.024 0.493 0.408 0.807 1.297v0c0.525 1.486 0.023 2.499-1.506 3.039-1.529 0.54-3.672 0.32-6.428-0.659v0c-1.691-0.636-3.345-1.501-4.965-2.594v0c-0.857-0.622-1.442-1.378-1.756-2.267v0c-0.411-1.163-0.232-2.035 0.537-2.615v0c0.356-0.311 0.979-0.623 1.868-0.936 0.889-0.314 1.658-0.455 2.306-0.424v0c-1.448-0.181-2.721-0.488-3.819-0.923-1.105-0.432-1.903-0.849-2.394-1.251-0.487-0.41-0.823-0.877-1.009-1.401v0c-0.323-0.914-0.304-1.636 0.057-2.167 0.364-0.54 0.833-0.911 1.406-1.113v0c0.749-0.264 1.62-0.387 2.613-0.368 0.999 0.017 1.814 0.103 2.444 0.257 0.628 0.148 1.396 0.364 2.304 0.646 0.908 0.282 1.423 0.491 1.546 0.626v0c0.212 0.309 0.372 0.619 0.482 0.929 0.108 0.305 0.156 0.589 0.147 0.852-0.012 0.258-0.083 0.416-0.212 0.476-0.136 0.062-0.399-0.024-0.789-0.256z" fill="#473829" data-fill-palette-color="primary"></path><path d="M31.984 196.547c-0.42-0.161-1.396-0.341-2.927-0.541-1.522-0.198-2.779-0.213-3.77-0.044-0.995 0.162-1.755 0.395-2.282 0.697-0.521 0.299-0.651 0.676-0.389 1.13 0.261 0.454 0.951 0.902 2.07 1.346v0c1.852 0.693 4.733 1.019 8.643 0.975v0c0.191-0.005 0.35 0.104 0.479 0.328 0.126 0.218 0.241 0.555 0.345 1.009 0.113 0.456 0.075 0.739-0.115 0.849v0c-0.062 0.035-0.136 0.048-0.223 0.039v0c-1.933-0.058-3.868 0.317-5.803 1.124v0c-0.659 0.267-1.092 0.654-1.3 1.161v0c-0.223 0.493 0.139 1.026 1.088 1.599v0c1.397 0.925 3.097 1.531 5.102 1.816 2.005 0.285 3.636 0.233 4.895-0.155v0c0.278-0.048 0.554-0.151 0.829-0.309v0c1.17-0.673 1.688-1.418 1.553-2.235v0c-0.025-0.239-0.118-0.465-0.278-0.678-0.166-0.21-0.236-0.352-0.211-0.426 0.033-0.071 0.086-0.116 0.157-0.135v0c0.216-0.065 0.559 0.312 1.029 1.129v0c0.786 1.366 0.476 2.454-0.929 3.262-1.405 0.808-3.553 0.981-6.442 0.519v0c-1.778-0.319-3.562-0.869-5.352-1.65v0c-0.956-0.456-1.668-1.093-2.139-1.91v0c-0.615-1.069-0.598-1.959 0.053-2.669v0c0.294-0.37 0.849-0.79 1.667-1.26 0.818-0.47 1.548-0.749 2.191-0.836v0c-1.456 0.085-2.764 0.014-3.924-0.213-1.165-0.224-2.025-0.489-2.581-0.796-0.554-0.315-0.969-0.713-1.246-1.195v0c-0.483-0.84-0.596-1.554-0.338-2.141 0.26-0.597 0.654-1.047 1.18-1.35v0c0.689-0.396 1.523-0.675 2.504-0.836 0.986-0.165 1.802-0.228 2.45-0.191 0.644 0.032 1.438 0.104 2.382 0.217 0.944 0.113 1.489 0.224 1.634 0.334v0c0.264 0.265 0.479 0.541 0.643 0.827 0.161 0.28 0.261 0.55 0.299 0.811 0.035 0.255-0.006 0.424-0.122 0.507-0.122 0.085-0.396 0.049-0.822-0.109z" fill="#473829" data-fill-palette-color="primary"></path><path d="M44.282 214.985c-0.442-0.082-1.435-0.082-2.976-0.001-1.533 0.082-2.771 0.296-3.716 0.641-0.949 0.34-1.654 0.707-2.116 1.1-0.458 0.389-0.517 0.783-0.179 1.181 0.339 0.399 1.099 0.715 2.281 0.948v0c1.947 0.346 4.839 0.142 8.676-0.61v0c0.187-0.04 0.363 0.039 0.531 0.236 0.163 0.192 0.337 0.502 0.523 0.929 0.194 0.428 0.208 0.713 0.04 0.856v0c-0.054 0.046-0.125 0.072-0.212 0.079v0c-1.912 0.294-3.746 1.014-5.502 2.159v0c-0.599 0.382-0.955 0.841-1.067 1.377v0c-0.13 0.526 0.324 0.984 1.359 1.375v0c1.542 0.656 3.324 0.943 5.347 0.86 2.023-0.084 3.618-0.431 4.786-1.042v0c0.265-0.098 0.517-0.249 0.759-0.454v0c1.029-0.874 1.403-1.701 1.122-2.48v0c-0.068-0.23-0.201-0.436-0.397-0.616-0.201-0.177-0.296-0.304-0.286-0.381 0.02-0.076 0.063-0.13 0.13-0.161v0c0.201-0.103 0.607 0.205 1.218 0.923v0c1.021 1.201 0.914 2.326-0.322 3.377-1.235 1.05-3.315 1.61-6.24 1.68v0c-1.806 0.009-3.661-0.207-5.563-0.65v0c-1.022-0.275-1.839-0.772-2.45-1.491v0c-0.799-0.94-0.943-1.818-0.433-2.633v0c0.222-0.417 0.692-0.931 1.411-1.543 0.719-0.611 1.386-1.017 2.002-1.219v0c-1.417 0.348-2.716 0.515-3.897 0.502-1.186-0.009-2.08-0.114-2.682-0.313-0.602-0.209-1.082-0.525-1.443-0.949v0c-0.628-0.738-0.868-1.42-0.721-2.045 0.148-0.634 0.453-1.148 0.916-1.541v0c0.605-0.515 1.375-0.94 2.31-1.277 0.94-0.341 1.731-0.552 2.374-0.632 0.639-0.086 1.433-0.159 2.383-0.22 0.949-0.061 1.505-0.05 1.667 0.032v0c0.308 0.213 0.569 0.445 0.782 0.696 0.209 0.246 0.356 0.494 0.442 0.744 0.081 0.245 0.072 0.418-0.028 0.52-0.105 0.106-0.381 0.12-0.829 0.043z" fill="#473829" data-fill-palette-color="primary"></path><path d="M53.248 235.747v0l-0.426 0.451c-0.115 0.122-0.405 0.231-0.868 0.326-0.459 0.1-0.74 0.101-0.843 0.004v0c-0.582-0.55-0.74-0.966-0.474-1.248v0c0.133-0.141 0.509-0.186 1.127-0.135v0c0.857 0.081 1.341 0.174 1.455 0.281 0.117 0.111 0.127 0.218 0.029 0.321z" fill="#473829" data-fill-palette-color="primary"></path><path d="M79.282 230.55v0c0.454 0.11 0.809 0.256 1.067 0.441v0c0.867 0.619 1.269 1.263 1.204 1.931v0c-0.011 0.349-0.081 0.613-0.208 0.792v0c-0.957 1.34-3.283 2.224-6.976 2.65v0c-3.237 0.331-6.144 0.529-8.723 0.593v0c-1.438 0.846-3.097 1.964-4.977 3.352v0c1.329-0.361 2.942-0.725 4.84-1.092v0c3.805-0.704 6.138-0.748 7-0.133v0c0.436 0.312 0.509 0.693 0.219 1.145v0c-0.286 0.478-0.69 0.844-1.213 1.098-0.519 0.249-1.006 0.48-1.461 0.695v0c-2.021 0.874-3.46 1.911-4.316 3.109v0c-0.282 0.394-0.407 0.737-0.377 1.028v0c0.053 0.514 0.433 0.817 1.138 0.908 0.714 0.089 1.823 0.048 3.327-0.124 1.508-0.177 2.828-0.453 3.96-0.827v0c0.166-0.032 0.277 0.007 0.333 0.118 0.052 0.116 0.061 0.198 0.027 0.246-0.034 0.047-0.092 0.089-0.174 0.126v0c-0.679 0.317-1.693 0.609-3.042 0.875-1.353 0.272-2.392 0.415-3.116 0.43v0c-1.396 0.043-2.506-0.23-3.332-0.82v0c-0.752-0.537-0.987-1.269-0.707-2.195v0c0.065-0.224 0.185-0.459 0.362-0.706 0.176-0.247 0.383-0.492 0.62-0.736v0c0.689-0.754 2.131-1.673 4.326-2.757v0c0.451-0.21 0.729-0.388 0.835-0.535 0.105-0.147 0.079-0.277-0.079-0.389v0c-0.315-0.225-1.207-0.266-2.674-0.124v0c-1.015 0.132-2.686 0.566-5.013 1.302-2.323 0.73-3.599 1.089-3.829 1.076v0c-0.961-0.155-1.523-0.29-1.686-0.407-0.168-0.12-0.246-0.211-0.233-0.274 0.013-0.062 0.068-0.118 0.167-0.166 0.093-0.053 0.56-0.374 1.402-0.963v0c2.795-1.957 4.66-3.241 5.595-3.851v0c-1.236 0.364-2.709 0.72-4.419 1.071v0c-0.27 0.045-0.325-0.045-0.164-0.272 0.161-0.226 0.416-0.394 0.764-0.502 0.348-0.109 1.045-0.302 2.091-0.578 1.041-0.28 1.801-0.504 2.278-0.672v0c-0.102-0.224-0.097-0.426 0.017-0.607 0.117-0.186 0.263-0.268 0.438-0.247 0.175 0.022 0.371 0.197 0.588 0.527v0c0.39-0.134 0.784-0.314 1.181-0.537v0c5.944-3.367 10.258-4.7 12.94-3.999zM79.348 233.943v0c0.595-0.289 1.01-0.597 1.242-0.923 0.233-0.326 0.207-0.59-0.076-0.793-0.289-0.206-0.795-0.298-1.519-0.274v0c-3.344 0.104-7.28 1.469-11.806 4.094v0c1.872 0.091 3.999-0.053 6.381-0.432 2.386-0.384 4.312-0.941 5.778-1.672z" fill="#473829" data-fill-palette-color="primary"></path><path d="M81.874 251.893v0c0.805-0.593 1.32-1.103 1.543-1.533 0.221-0.424 0.349-0.787 0.384-1.089 0.031-0.297 0.183-0.484 0.456-0.56 0.273-0.076 0.535-0.019 0.786 0.17v0c0.373 0.333 0.336 0.926-0.11 1.779-0.449 0.859-1.542 1.724-3.279 2.595v0c-0.279 0.59-0.13 1.036 0.449 1.338 0.578 0.302 1.782 0.14 3.61-0.487v0c0.899-0.354 1.467-0.589 1.703-0.706 0.239-0.123 0.4-0.13 0.481-0.022 0.079 0.114 0.108 0.191 0.087 0.231v0c-0.114 0.218-0.792 0.574-2.034 1.069v0c-2.009 0.86-3.483 1.045-4.422 0.555v0c-0.624-0.326-0.924-0.825-0.9-1.498v0c-0.666 0.228-1.303 0.431-1.914 0.607v0c-1.204 0.268-2.321 0.132-3.351-0.406v0c-0.578-0.302-0.989-0.695-1.232-1.178v0c-0.517-0.838-0.473-1.836 0.131-2.993v0c0.661-1.265 1.763-2.329 3.307-3.192v0c0.896-0.516 1.827-0.889 2.793-1.12v0c1.535-0.372 2.775-0.311 3.72 0.182v0c0.235 0.123 0.442 0.271 0.62 0.445v0c0.533 0.555 0.643 1.134 0.329 1.735v0c-0.257 0.492-0.515 0.671-0.772 0.536v0c-0.085-0.103-0.056-0.291 0.088-0.566v0c0.203-0.389 0.09-0.696-0.339-0.92v0c-0.75-0.392-2.074-0.209-3.971 0.549-1.897 0.758-3.326 1.772-4.288 3.041v0c-0.168 0.211-0.329 0.462-0.481 0.754-0.15 0.286-0.226 0.669-0.228 1.149 0 0.474 0.264 0.848 0.79 1.123 0.521 0.272 1.216 0.336 2.086 0.193 0.869-0.144 1.742-0.453 2.616-0.929v0l0.005-0.238c0.094-0.388 0.283-0.647 0.568-0.775 0.282-0.122 0.539-0.068 0.769 0.161z" fill="#473829" data-fill-palette-color="primary"></path><path d="M96.258 258.039v0c0.726-0.687 1.174-1.258 1.343-1.712 0.167-0.448 0.249-0.824 0.246-1.128-0.006-0.299 0.122-0.502 0.384-0.612 0.261-0.109 0.528-0.085 0.801 0.072v0c0.411 0.285 0.448 0.878 0.11 1.779-0.339 0.908-1.317 1.9-2.934 2.979v0c-0.204 0.62-0.001 1.044 0.61 1.273 0.611 0.228 1.785-0.081 3.523-0.928v0c0.849-0.462 1.383-0.766 1.602-0.911 0.222-0.151 0.38-0.178 0.475-0.081 0.092 0.103 0.131 0.176 0.115 0.219v0c-0.086 0.23-0.715 0.667-1.887 1.311v0c-1.887 1.101-3.327 1.466-4.319 1.096v0c-0.659-0.247-1.019-0.705-1.079-1.376v0c-0.632 0.308-1.24 0.588-1.824 0.839v0c-1.162 0.414-2.287 0.417-3.376 0.01v0c-0.611-0.228-1.067-0.568-1.367-1.018v0c-0.616-0.768-0.696-1.763-0.239-2.986v0c0.5-1.337 1.463-2.529 2.888-3.575v0c0.826-0.622 1.704-1.108 2.634-1.456v0c1.477-0.558 2.715-0.65 3.714-0.277v0c0.248 0.093 0.472 0.214 0.67 0.364v0c0.598 0.486 0.778 1.046 0.541 1.681v0c-0.195 0.52-0.428 0.73-0.7 0.628v0c-0.097-0.091-0.091-0.282 0.017-0.573v0c0.154-0.411 0.004-0.702-0.45-0.871v0c-0.793-0.296-2.084 0.049-3.873 1.034-1.789 0.986-3.083 2.168-3.88 3.546v0c-0.141 0.23-0.269 0.499-0.385 0.808-0.113 0.303-0.141 0.692-0.085 1.168 0.059 0.47 0.366 0.809 0.923 1.017 0.551 0.206 1.248 0.184 2.093-0.065 0.845-0.25 1.672-0.664 2.483-1.245v0l-0.025-0.237c0.045-0.397 0.201-0.676 0.468-0.838 0.265-0.156 0.526-0.134 0.783 0.065z" fill="#473829" data-fill-palette-color="primary"></path><path d="M104.695 265.167v0c-0.947 0.227-1.537 0.313-1.77 0.26-0.239-0.055-0.351-0.117-0.335-0.187 0.016-0.069 0.052-0.14 0.109-0.213 0.057-0.073 0.322-0.479 0.797-1.219 0.479-0.732 1.084-1.66 1.812-2.785 0.735-1.124 1.361-2.06 1.878-2.809v0c-0.677 0.467-1.5 1.137-2.469 2.007v0c-0.157 0.136-0.329 0.147-0.514 0.031-0.186-0.116-0.062-0.349 0.37-0.7v0c0.991-0.766 2.282-1.898 3.871-3.396v0c-0.309-0.27-0.444-0.493-0.403-0.669 0.04-0.176 0.094-0.307 0.16-0.391v0c0.185-0.256 0.409-0.267 0.674-0.034v0c0.133 0.084 0.222 0.13 0.265 0.141v0c1.668-2.5 3.525-4.642 5.572-6.425v0c1.126-1.007 2.212-1.682 3.259-2.025 1.048-0.349 1.975-0.431 2.78-0.247v0c0.567 0.13 1.076 0.393 1.529 0.789 0.46 0.391 0.62 0.891 0.48 1.502v0c-0.27 1.177-1.68 2.653-4.228 4.427v0c-1.349 0.91-2.804 1.692-4.366 2.348-1.57 0.66-2.926 1.094-4.067 1.302v0c-1.385 1.816-2.684 3.751-3.898 5.806v0l2.984-2.476c0.03-0.218 0.072-0.444 0.126-0.677v0c0.163-0.711 0.415-1.114 0.754-1.209v0c0.18-0.032 0.254 0.135 0.224 0.499v0l0.027 0.533c2.302-1.712 3.899-2.664 4.791-2.856v0c0.421-0.102 0.783-0.118 1.085-0.049 0.308 0.071 0.56 0.218 0.754 0.441 0.202 0.219 0.281 0.422 0.237 0.611v0c-0.075 0.327-0.414 0.561-1.016 0.701v0c-2.88 0.651-4.833 1.319-5.859 2.005v0c0.113 2.107 0.309 3.789 0.591 5.047 0.281 1.258 0.841 2.728 1.681 4.412 0.847 1.679 1.752 2.629 2.715 2.851v0c0.806 0.185 1.217-0.092 1.235-0.83v0c0.052-0.658-0.018-1.25-0.208-1.778-0.184-0.526-0.16-0.762 0.073-0.709v0c0.208 0.074 0.407 0.233 0.597 0.475v0c0.107 0.197 0.208 0.522 0.303 0.975 0.093 0.459 0.108 0.83 0.042 1.113v0c-0.177 0.655-0.617 1.101-1.321 1.337-0.697 0.237-1.329 0.291-1.896 0.161v0c-1.108-0.254-2.064-1.054-2.869-2.399-0.812-1.34-1.393-2.868-1.74-4.585-0.354-1.718-0.486-3.425-0.395-5.121v0c-0.558 0.495-1.193 1.095-1.904 1.8v0c-1.431 1.381-2.27 2.12-2.517 2.215zM120.275 250.354c0.88-0.918 1.369-1.588 1.466-2.01 0.098-0.428-0.029-0.683-0.382-0.764-0.353-0.081-0.849 0.03-1.488 0.335v0c-1.776 0.805-3.352 1.825-4.729 3.059-1.377 1.235-2.825 2.834-4.343 4.799v0c2.43-0.509 4.775-1.584 7.034-3.226v0c0.749-0.55 1.563-1.281 2.442-2.193z" fill="#473829" data-fill-palette-color="primary"></path><path d="M128.084 258.379v0c1.296 0.151 1.871 0.851 1.727 2.103v0c-0.075 0.648-0.316 1.157-0.724 1.525v0c-0.7 0.816-1.761 1.476-3.186 1.981-1.424 0.504-2.609 0.737-3.553 0.699v0c-0.343-0.014-0.512-0.131-0.506-0.352v0c-0.014-0.099 0.021-0.154 0.107-0.163 0.086-0.016 0.155-0.021 0.207-0.015v0c0.558 0.013 1.297-0.168 2.218-0.542v0c1.711-0.679 2.992-1.434 3.843-2.265v0c0.364-0.393 0.57-0.789 0.616-1.187 0.046-0.398-0.123-0.619-0.508-0.664v0c-0.314-0.037-0.754 0.049-1.317 0.257v0c-1.19 0.395-2.484 1.175-3.881 2.339-1.403 1.164-2.37 2.349-2.901 3.555v0c-0.167 0.371-0.272 0.742-0.314 1.114-0.043 0.372 0.073 0.747 0.347 1.123 0.276 0.37 0.737 0.593 1.386 0.668v0c0.719 0.083 1.569-0.013 2.55-0.289v0c2.842-0.788 5.128-2.217 6.857-4.285v0c0.164-0.176 0.299-0.196 0.407-0.06v0c0.09 0.063 0.131 0.129 0.123 0.2-0.008 0.071-0.053 0.15-0.135 0.238v0c-0.858 1.116-1.896 2.078-3.115 2.886v0c-2.349 1.58-4.534 2.253-6.555 2.018v0c-1.732-0.201-2.885-0.859-3.458-1.972v0c-0.215-0.441-0.289-0.951-0.222-1.528 0.066-0.571 0.3-1.236 0.7-1.996v0c0.763-1.303 2.212-2.559 4.349-3.767 2.138-1.215 3.784-1.755 4.939-1.621z" fill="#473829" data-fill-palette-color="primary"></path><path d="M135.106 262.593c1.029-1.003 2.109-1.865 3.241-2.588 1.132-0.729 2.032-1.196 2.702-1.4 0.67-0.198 1.331-0.311 1.983-0.34 0.652-0.029 1.278 0.163 1.878 0.576v0c2.969-7.839 5.964-11.825 8.984-11.959v0c1.013-0.045 1.716 0.215 2.11 0.78v0c0.181 0.283 0.276 0.534 0.286 0.753v0c0.027 0.607-0.2 1.386-0.682 2.339-0.475 0.952-1.233 2.007-2.275 3.165-1.035 1.164-2.532 2.608-4.493 4.331-1.961 1.716-3.043 2.676-3.247 2.879v0c-0.695 1.828-1.225 3.585-1.59 5.269-0.359 1.684-0.52 2.939-0.483 3.765 0.036 0.82 0.21 1.465 0.523 1.936v0c0.156 0.31 0.38 0.487 0.673 0.533 0.293 0.052 0.54 0.005 0.741-0.14 0.2-0.145 0.353-0.268 0.458-0.369 0.105-0.102 0.234-0.198 0.385-0.289 0.151-0.091 0.267-0.112 0.347-0.064 0.073 0.042 0.066 0.175-0.022 0.399v0c-0.183 0.247-0.355 0.462-0.514 0.643v0c-0.375 0.282-0.825 0.434-1.347 0.458-0.516 0.023-0.862 0.025-1.038 0.007v0c-1.164-0.142-1.779-0.962-1.845-2.459v0c-0.064-1.452 0.07-2.803 0.402-4.053v0c0.454-1.714 0.873-3.139 1.256-4.274v0c-3.666 4.669-6.309 7.04-7.929 7.111v0c-0.387 0.017-0.808-0.077-1.263-0.283-0.456-0.213-0.851-0.525-1.186-0.937-0.335-0.405-0.513-0.85-0.535-1.334-0.021-0.484 0.068-0.947 0.269-1.389v0c0.439-1.041 1.176-2.063 2.211-3.066zM144.186 260.687l0.459-1.252c-0.297-0.136-0.81-0.187-1.539-0.155-0.723 0.032-1.645 0.37-2.768 1.015-1.122 0.645-2.17 1.435-3.144 2.37v0c-0.81 0.838-1.512 1.771-2.106 2.799-0.601 1.035-0.891 1.782-0.871 2.241v0c0.04 0.897 0.315 1.334 0.824 1.311 0.51-0.023 1.266-0.47 2.268-1.342v0c2.58-2.319 4.873-4.648 6.877-6.987zM154.859 249.827v0c0.29-0.595 0.427-1.092 0.409-1.493-0.018-0.4-0.201-0.592-0.55-0.577-0.355 0.016-0.813 0.256-1.374 0.721v0c-2.569 2.144-4.822 5.645-6.76 10.502v0c1.53-1.083 3.112-2.508 4.747-4.274 1.641-1.773 2.817-3.4 3.528-4.879z" fill="#473829" data-fill-palette-color="primary"></path><path d="M159.247 257.828v0c0.429-0.059 0.974 0.09 1.637 0.448 0.656 0.359 1.053 0.751 1.19 1.175v0c0.042 0.164 0.073 0.316 0.092 0.457v0c0.15 1.081-0.214 2.312-1.092 3.692-0.885 1.381-1.926 2.595-3.125 3.641v0c-1.849 1.671-3.778 2.646-5.787 2.925v0c-0.819 0.113-1.483 0.095-1.993-0.057v0c-0.41-0.139 0.056-0.301 1.4-0.487v0c1.465-0.203 3.239-1.329 5.322-3.379v0c2.033-1.892 3.137-3.972 3.313-6.239v0c0.023-0.349-0.03-0.69-0.162-1.025-0.131-0.334-0.363-0.478-0.695-0.431v0c-1.081 0.15-2.391 1.101-3.929 2.852v0c-0.656 0.723-1.302 1.667-1.935 2.831-0.634 1.164-0.905 2.078-0.814 2.744v0c0.013 0.096 0.047 0.196 0.1 0.299 0.047 0.104 0.03 0.286-0.051 0.545v0c-0.228 0.664-0.678 0.687-1.35 0.07v0c-0.197-0.338-0.322-0.699-0.375-1.083v0c-0.152-1.101-0.144-2.285 0.026-3.554v0c-0.083 0.109-0.253 0.433-0.511 0.971-0.253 0.531-0.563 1.066-0.932 1.606v0c-0.177 0.272-0.344 0.295-0.499 0.069v0c-0.032-0.041-0.053-0.103-0.065-0.187-0.012-0.083 0.022-0.192 0.101-0.327v0c1.547-2.581 2.428-4.243 2.646-4.983v0c0.263-1.256 0.705-2.912 1.327-4.967 0.623-2.049 1.225-3.701 1.807-4.956v0c1.2-2.638 2.612-4.069 4.238-4.294v0c0.288-0.04 0.594-0.043 0.918-0.01v0l0.754 0.15c0.748 0.314 1.165 0.787 1.253 1.421 0.088 0.633-0.009 1.348-0.29 2.143v0c-0.444 1.359-1.563 3.145-3.356 5.356-1.793 2.218-3.568 4.133-5.328 5.746v0c-0.361 0.924-0.576 2.101-0.645 3.533v0c0.707-1.441 1.689-2.872 2.947-4.292 1.258-1.42 2.545-2.221 3.863-2.403zM157.647 254.753v0c2.455-3.275 3.586-5.606 3.394-6.995v0c-0.08-0.576-0.337-0.834-0.772-0.773v0c-0.333 0.046-0.757 0.323-1.274 0.832v0c-2.207 2.236-4.11 6.129-5.709 11.678v0c1.475-1.306 2.929-2.887 4.361-4.742z" fill="#473829" data-fill-palette-color="primary"></path><path d="M171.144 279.61v0c-0.186 0.056-0.428 0.091-0.726 0.106v0c-1.273 0.051-2.049-0.391-2.329-1.325-0.282-0.941-0.028-2.301 0.76-4.082 0.796-1.776 2.764-4.55 5.902-8.321v0c0.846-5.101 1.292-8.63 1.34-10.587v0c-0.182 0.405-0.517 1.267-1.005 2.587-0.488 1.319-0.932 2.45-1.33 3.392-0.405 0.944-0.946 1.885-1.623 2.823-0.679 0.931-1.389 1.508-2.131 1.73-0.743 0.222-1.368 0.228-1.877 0.016-0.502-0.214-0.834-0.499-0.994-0.855-0.155-0.358-0.27-0.664-0.346-0.918v0c-0.258-0.86-0.283-1.79-0.077-2.789v0c0.27-1.618 0.844-3.115 1.72-4.49v0c0.315-0.546 0.643-0.87 0.983-0.972 0.334-0.1 0.671-0.09 1.011 0.031v0c0.401 0.237 0.578 0.488 0.528 0.752v0c-0.725 0.777-1.438 2.066-2.139 3.867v0c-0.365 0.966-0.484 2.087-0.358 3.364v0c0.023 0.168 0.071 0.373 0.144 0.615 0.074 0.248 0.232 0.416 0.475 0.505 0.242 0.089 0.469 0.102 0.679 0.039v0c0.718-0.215 1.356-0.821 1.914-1.817 0.562-1.005 1.075-2.038 1.539-3.101 0.466-1.057 0.98-2.313 1.541-3.769 0.562-1.456 0.933-2.413 1.112-2.872 0.18-0.458 0.418-0.732 0.715-0.821v0c0.371-0.111 0.785-0.124 1.243-0.038 0.453 0.094 0.669 0.208 0.649 0.342-0.02 0.134-0.218 1.626-0.592 4.475-0.374 2.85-0.651 4.895-0.832 6.136v0c0.468-0.464 1.198-1.458 2.191-2.983 0.999-1.526 1.79-3.007 2.372-4.442v0c0.146-0.347 0.288-0.413 0.426-0.198v0c0.038 0.036 0.072 0.106 0.104 0.211 0.032 0.105 0.004 0.272-0.083 0.5v0c-0.434 1.162-1.221 2.699-2.361 4.612-1.148 1.908-2.11 3.255-2.886 4.04v0c-0.752 4.649-1.309 7.594-1.673 8.835v0c-0.968 3.095-2.296 4.895-3.986 5.402zM174.49 267.512v0c-2.16 2.919-3.653 5.16-4.48 6.723-0.835 1.558-1.121 2.773-0.86 3.646 0.259 0.866 0.689 1.21 1.289 1.03v0c0.464-0.139 0.925-0.537 1.383-1.193 0.466-0.652 0.858-1.457 1.178-2.416 0.315-0.951 0.533-1.754 0.653-2.411 0.12-0.656 0.272-1.612 0.456-2.868 0.179-1.247 0.306-2.084 0.381-2.511z" fill="#473829" data-fill-palette-color="primary"></path><path d="M186.267 249.973v0c0.073 0.151 0.109 0.542 0.11 1.172 0.007 0.627 0.164 2.719 0.473 6.274v0c0.326-1.338 0.785-2.927 1.379-4.766v0c1.211-3.69 2.274-5.753 3.188-6.192v0c0.198-0.095 0.415-0.135 0.652-0.119 0.239 0.021 0.451 0.224 0.636 0.609 0.181 0.379 0.266 0.861 0.253 1.447-0.021 0.583-0.021 1.285 0 2.106 0.018 0.829 0.016 1.357-0.005 1.582v0c1.033-2.537 1.932-4.211 2.697-5.021 0.765-0.811 1.301-1.29 1.61-1.438 0.303-0.145 0.507-0.107 0.614 0.114v0c0.061 0.128 0.049 0.521-0.037 1.178-0.086 0.657-0.088 1.572-0.007 2.743 0.076 1.174 0.187 1.966 0.333 2.376 0.14 0.413 0.285 0.773 0.433 1.082 0.145 0.303 0.353 0.511 0.622 0.626v0c0.494 0.193 0.953 0.001 1.379-0.575 0.417-0.58 0.913-1.57 1.489-2.97 0.572-1.406 0.956-2.69 1.151-3.851v0c0.034-0.153 0.125-0.232 0.273-0.238 0.15 0 0.238 0.026 0.263 0.078 0.025 0.052 0.031 0.125 0.018 0.217v0c-0.044 0.745-0.272 1.778-0.684 3.1v0c-0.675 2.179-1.399 3.665-2.172 4.458v0c-0.858 0.841-1.579 1.241-2.165 1.199-0.58-0.044-1.003-0.203-1.27-0.476-0.267-0.273-0.479-0.573-0.636-0.899v0c-0.491-1.025-0.782-2.147-0.871-3.364-0.084-1.221-0.096-2.075-0.035-2.562v0c-0.66 0.746-1.161 1.524-1.504 2.333v0c-0.514 1.214-0.904 2.246-1.17 3.096v0l-0.311 1.031c0.04 0.576-0.173 1.014-0.638 1.315-0.459 0.299-0.77 0.247-0.933-0.154v0c-0.157-0.433-0.201-1.555-0.131-3.365 0.073-1.804 0.071-2.788-0.007-2.952-0.078-0.163-0.202-0.204-0.371-0.123v0c-0.396 0.19-0.892 0.979-1.486 2.368v0c-0.374 0.953-0.801 2.626-1.28 5.019-0.476 2.384-0.775 3.674-0.896 3.868v0c-0.599 0.767-0.998 1.198-1.196 1.293-0.198 0.095-0.312 0.11-0.343 0.046-0.031-0.064-0.043-0.18-0.038-0.347 0.003-0.159-0.242-2.373-0.735-6.643v0c-0.123 0.969-0.289 1.743-0.498 2.323v0c-0.08 0.282-0.185 0.286-0.316 0.012-0.128-0.268-0.162-0.539-0.099-0.812v0c0.361-1.756 0.557-3.193 0.587-4.311v0c-0.238-0.824-0.189-1.396 0.146-1.713v0c0.197-0.202 0.474-0.334 0.83-0.398 0.362-0.066 0.595 0.008 0.698 0.224z" fill="#473829" data-fill-palette-color="primary"></path><path d="M209.241 236.022v0c1.077-0.736 1.971-0.584 2.682 0.456v0c0.368 0.539 0.519 1.081 0.454 1.626v0c0.007 1.075-0.362 2.27-1.107 3.584-0.745 1.315-1.486 2.267-2.225 2.858v0c-0.268 0.214-0.472 0.237-0.612 0.066v0c-0.076-0.065-0.085-0.13-0.026-0.193 0.055-0.069 0.103-0.118 0.146-0.147v0c0.429-0.356 0.869-0.977 1.32-1.864v0c0.847-1.635 1.319-3.045 1.416-4.23v0c0.017-0.536-0.087-0.969-0.313-1.3-0.226-0.331-0.499-0.387-0.819-0.168v0c-0.261 0.179-0.537 0.531-0.826 1.058v0c-0.64 1.079-1.105 2.516-1.397 4.31-0.297 1.799-0.249 3.327 0.141 4.586v0c0.117 0.389 0.282 0.739 0.493 1.048 0.211 0.309 0.544 0.516 0.999 0.62 0.451 0.099 0.946-0.036 1.484-0.404v0c0.597-0.408 1.176-1.038 1.736-1.89v0c1.629-2.459 2.418-5.036 2.368-7.732v0c0.008-0.24 0.097-0.344 0.268-0.312v0c0.109-0.012 0.184 0.011 0.224 0.07 0.04 0.059 0.058 0.148 0.054 0.268v0c0.084 1.405-0.069 2.813-0.46 4.222v0c-0.737 2.734-1.946 4.674-3.626 5.822v0c-1.44 0.984-2.741 1.243-3.904 0.778v0c-0.452-0.192-0.842-0.528-1.169-1.008-0.324-0.475-0.584-1.13-0.781-1.966v0c-0.279-1.484-0.007-3.383 0.814-5.696 0.817-2.319 1.706-3.806 2.666-4.462z" fill="#473829" data-fill-palette-color="primary"></path><path d="M216.532 231.001v0c0.464-0.392 0.868-0.479 1.211-0.262v0c0.176 0.139 0.289 0.322 0.339 0.551 0.054 0.225 0.099 0.398 0.135 0.52 0.045 0.123 0.08 0.22 0.106 0.291v0c0.065 0.267 0.121 0.524 0.169 0.771v0c0.729 2.995 1.308 4.802 1.736 5.419v0c0.118 0.18 0.287 0.4 0.508 0.662 0.217 0.257 0.47 0.406 0.76 0.449v0c0.507 0.079 0.893-0.213 1.16-0.879 0.258-0.666 0.489-1.749 0.694-3.248 0.2-1.505 0.259-2.852 0.175-4.042v0c-0.005-0.156 0.058-0.252 0.189-0.287 0.135-0.03 0.222-0.023 0.26 0.022 0.038 0.044 0.062 0.113 0.072 0.206v0c0.145 0.732 0.184 1.789 0.117 3.172v0c-0.105 2.278-0.432 3.899-0.98 4.861v0c-0.322 0.56-0.639 0.971-0.949 1.234v0c-0.74 0.625-1.527 0.69-2.361 0.193v0c-0.143-0.099-0.294-0.242-0.452-0.43v0c-0.546-0.646-1.08-1.874-1.601-3.683v0c0.082 0.277 0.112 1.043 0.088 2.297v0c-0.004 0.325-0.133 0.433-0.385 0.325v0c-0.049-0.018-0.1-0.059-0.154-0.123-0.054-0.064-0.084-0.174-0.089-0.331v0c-0.046-1.897-0.138-3.452-0.274-4.664v0c-0.119-0.06-0.204-0.196-0.255-0.406v0c-0.501-1.344-0.638-2.162-0.412-2.455v0c0.054-0.046 0.118-0.1 0.193-0.163zM215.609 225.464v0l0.528 1.076c0.142 0.168 0.25 0.537 0.326 1.107 0.071 0.574 0.042 0.916-0.086 1.024v0c-0.794 0.671-1.356 0.812-1.685 0.422v0c-0.063-0.074 0.045-0.753 0.322-2.035v0l0.166-0.75c0.075-0.512 0.15-0.799 0.224-0.861 0.074-0.063 0.142-0.057 0.205 0.018z" fill="#473829" data-fill-palette-color="primary"></path><path d="M230.646 229.728v0l0.425 0.452c0.115 0.122 0.207 0.418 0.275 0.885 0.073 0.464 0.057 0.744-0.046 0.842v0c-0.583 0.549-1.008 0.682-1.274 0.4v0c-0.133-0.141-0.156-0.519-0.068-1.133v0c0.131-0.851 0.253-1.329 0.366-1.435 0.118-0.111 0.225-0.114 0.322-0.011z" fill="#473829" data-fill-palette-color="primary"></path><path d="M236.11 226.56v0c0.083 0.474 0.264 0.711 0.544 0.709 0.284 0.003 0.499-0.083 0.645-0.256 0.149-0.178 0.274-0.382 0.373-0.611v0c0.426-1 0.598-2.175 0.517-3.525-0.081-1.35-0.493-2.336-1.236-2.959v0c-0.411-0.345-1.238-0.263-2.482 0.245v0c-0.58 0.239-0.91 0.371-0.99 0.396v0c-0.756 0.217-1.353 0.251-1.793 0.102v0c0.225 0.636 0.513 1.59 0.862 2.861v0c0.04 0.253-0.029 0.401-0.208 0.444-0.171 0.042-0.291-0.046-0.36-0.264v0c-0.404-1.629-0.858-2.862-1.362-3.698v0c-0.911-0.984-1.204-2.494-0.878-4.531 0.317-2.036 0.943-3.611 1.877-4.724v0c0.59-0.703 1.129-1.094 1.617-1.173 0.493-0.075 0.861-0.011 1.103 0.193 0.238 0.199 0.456 0.501 0.657 0.905 0.2 0.404 0.261 0.935 0.181 1.594v0c-0.021 0.176-0.12 0.254-0.296 0.232v0c-0.138-0.057-0.222-0.263-0.254-0.618-0.032-0.364-0.191-0.712-0.476-1.045-0.291-0.337-0.621-0.361-0.99-0.071v0c-0.046 0.054-0.093 0.111-0.143 0.17v0c-0.606 0.722-1.094 1.852-1.465 3.388-0.37 1.536-0.387 2.968-0.05 4.296v0c0.117 0.503 0.337 0.89 0.658 1.16 0.327 0.274 0.805 0.296 1.437 0.067v0c0.267-0.088 0.707-0.254 1.318-0.5 0.616-0.242 1.058-0.407 1.325-0.495 0.267-0.097 0.629-0.172 1.087-0.225 0.458-0.063 0.796-0.015 1.017 0.145v0c0.633 0.371 1.028 1.141 1.186 2.31v0c0.234 1.681-0.18 3.546-1.244 5.597v0c-0.234 0.47-0.517 0.903-0.849 1.298-0.336 0.401-0.715 0.551-1.137 0.45v0c-0.12-0.008-0.259-0.078-0.417-0.211-0.158-0.133-0.289-0.495-0.391-1.087v0c-0.045-0.51 0.062-1.179 0.32-2.008v0c0.026-0.071 0.073-0.112 0.14-0.123 0.069-0.001 0.122 0.031 0.16 0.097 0.042 0.061 0.025 0.211-0.05 0.451-0.075 0.24-0.059 0.578 0.047 1.014z" fill="#473829" data-fill-palette-color="primary"></path><path d="M233.418 193.625v0c0.088-0.458 0.217-0.82 0.389-1.087v0c0.577-0.896 1.201-1.328 1.871-1.295v0c0.349-0.006 0.616 0.051 0.801 0.17v0c1.385 0.892 2.379 3.172 2.982 6.841v0c0.486 3.217 0.823 6.112 1.011 8.684v0c0.914 1.396 2.11 2.999 3.586 4.81v0c-0.424-1.31-0.865-2.904-1.323-4.782v0c-0.886-3.767-1.042-6.095-0.468-6.986v0c0.29-0.451 0.668-0.542 1.133-0.273v0c0.492 0.263 0.877 0.649 1.155 1.159 0.273 0.506 0.528 0.982 0.764 1.426v0c0.97 1.977 2.074 3.364 3.313 4.162v0c0.407 0.262 0.756 0.371 1.045 0.327v0c0.511-0.078 0.795-0.471 0.852-1.18 0.055-0.718-0.04-1.823-0.284-3.317-0.249-1.498-0.588-2.803-1.016-3.916v0c-0.04-0.164-0.006-0.277 0.102-0.338 0.114-0.057 0.195-0.07 0.244-0.038 0.049 0.031 0.094 0.087 0.135 0.167v0c0.349 0.663 0.689 1.662 1.02 2.996 0.337 1.338 0.529 2.369 0.578 3.093v0c0.11 1.392-0.11 2.515-0.658 3.367v0c-0.5 0.777-1.22 1.047-2.159 0.811v0c-0.227-0.054-0.468-0.163-0.723-0.327-0.255-0.164-0.51-0.359-0.764-0.585v0c-0.786-0.652-1.773-2.049-2.961-4.189v0c-0.231-0.441-0.422-0.71-0.575-0.808-0.152-0.098-0.281-0.065-0.385 0.098v0c-0.21 0.326-0.208 1.218 0.004 2.677v0c0.181 1.008 0.694 2.656 1.541 4.945 0.841 2.285 1.26 3.543 1.258 3.772v0c-0.108 0.967-0.217 1.535-0.325 1.704-0.112 0.174-0.199 0.256-0.262 0.246-0.063-0.01-0.121-0.063-0.175-0.159-0.057-0.09-0.4-0.542-1.029-1.354v0c-2.089-2.698-3.46-4.499-4.114-5.404v0c0.422 1.217 0.849 2.671 1.281 4.363v0c0.058 0.268-0.03 0.327-0.263 0.176-0.234-0.15-0.413-0.397-0.539-0.738-0.125-0.342-0.351-1.029-0.677-2.062-0.33-1.027-0.59-1.774-0.78-2.242v0c-0.219 0.113-0.421 0.117-0.608 0.012-0.192-0.108-0.281-0.25-0.267-0.426 0.013-0.176 0.179-0.38 0.498-0.613v0c-0.153-0.383-0.351-0.768-0.593-1.154v0c-3.648-5.776-5.186-10.021-4.615-12.733zM236.804 193.396v0c-0.317-0.581-0.644-0.98-0.981-1.196-0.337-0.217-0.599-0.179-0.789 0.114-0.192 0.299-0.26 0.809-0.201 1.53v0c0.264 3.336 1.816 7.201 4.655 11.596v0c0.001-1.874-0.245-3.992-0.737-6.353-0.498-2.364-1.147-4.261-1.947-5.691z" fill="#473829" data-fill-palette-color="primary"></path><path d="M254.611 190.011v0c-0.631-0.776-1.166-1.265-1.605-1.468-0.434-0.201-0.803-0.311-1.107-0.33-0.298-0.017-0.492-0.16-0.581-0.429-0.089-0.269-0.045-0.533 0.132-0.793v0c0.315-0.388 0.909-0.38 1.782 0.023 0.879 0.407 1.796 1.457 2.749 3.151v0c0.603 0.25 1.041 0.08 1.316-0.513 0.274-0.592 0.054-1.786-0.66-3.582v0c-0.397-0.881-0.659-1.437-0.788-1.667-0.134-0.233-0.149-0.393-0.045-0.48 0.11-0.084 0.186-0.117 0.227-0.098v0c0.223 0.103 0.611 0.763 1.166 1.981v0c0.956 1.965 1.211 3.428 0.766 4.389v0c-0.296 0.639-0.78 0.963-1.453 0.972v0c0.26 0.654 0.493 1.281 0.699 1.882v0c0.325 1.189 0.244 2.312-0.244 3.367v0c-0.274 0.592-0.647 1.021-1.118 1.287v0c-0.813 0.557-1.811 0.561-2.995 0.013v0c-1.296-0.599-2.411-1.649-3.348-3.149v0c-0.558-0.87-0.976-1.782-1.253-2.736v0c-0.445-1.515-0.444-2.757 0.003-3.724v0c0.111-0.24 0.249-0.454 0.414-0.641v0c0.529-0.559 1.102-0.697 1.717-0.413v0c0.504 0.233 0.695 0.482 0.574 0.746v0c-0.098 0.09-0.288 0.069-0.57-0.061v0c-0.399-0.184-0.7-0.057-0.903 0.383v0c-0.355 0.768-0.109 2.081 0.74 3.94 0.849 1.858 1.929 3.237 3.243 4.137v0c0.219 0.158 0.478 0.306 0.776 0.444 0.293 0.136 0.679 0.193 1.159 0.173 0.473-0.023 0.835-0.304 1.084-0.844 0.247-0.534 0.278-1.231 0.092-2.092-0.185-0.861-0.536-1.718-1.054-2.569v0l-0.238 0.007c-0.392-0.075-0.659-0.252-0.801-0.53-0.136-0.276-0.094-0.535 0.124-0.776z" fill="#473829" data-fill-palette-color="primary"></path><path d="M257.651 170.518v0c1.02 0.308 1.93 1.038 2.729 2.19 0.807 1.148 1.431 2.409 1.873 3.785v0c0.358 1.249 0.557 2.466 0.597 3.652 0.046 1.188-0.013 2.054-0.178 2.598-0.164 0.544-0.355 0.973-0.57 1.285v0c1.026 0.87 2.791 2.176 5.294 3.917v0c0.275 0.184 0.637 0.348 1.087 0.491 0.448 0.149 1.018 0.473 1.711 0.972 0.697 0.507 1.239 0.958 1.626 1.351v0c0.245 0.195 0.369 0.597 0.374 1.207 0.005 0.609-0.028 1.031-0.099 1.265-0.069 0.229-0.218 0.309-0.447 0.24v0c-0.093-0.028-0.212-0.101-0.358-0.22v0c-1.855-1.721-4.649-4.033-8.381-6.935-3.74-2.898-5.818-4.497-6.233-4.797-0.415-0.301-1.016-0.735-1.803-1.304v0c-1.331-0.955-2.36-1.57-3.087-1.844v0c-0.278-0.084-0.305-0.497-0.081-1.239 0.224-0.742 0.602-1.033 1.134-0.872v0c0.396 0.12 0.878 0.511 1.447 1.176 0.573 0.672 1.781 1.766 3.624 3.281v0c-1.635-1.958-2.639-3.449-3.012-4.472v0c-0.567-1.386-0.692-2.601-0.376-3.646v0c0.125-0.414 0.318-0.808 0.58-1.182v0c0.602-0.81 1.276-1.153 2.021-1.029v0c0.191 0.037 0.367 0.081 0.528 0.129zM256.647 172.066v0c-0.81-0.245-1.309-0.055-1.498 0.57v0c-0.112 0.371-0.075 1.04 0.112 2.008 0.193 0.969 0.602 2.004 1.228 3.104 0.626 1.1 1.26 1.993 1.903 2.68 0.637 0.685 1.306 1.349 2.009 1.993 0.705 0.638 1.118 1.012 1.24 1.124v0c0.426-1.41 0.279-3.148-0.439-5.214-0.714-2.058-1.666-3.722-2.855-4.992v0c-0.577-0.68-1.144-1.105-1.7-1.273z" fill="#473829" data-fill-palette-color="primary"></path></g></svg></g></svg></g></svg></g></svg></g></svg></g></svg></g><defs></defs></svg><rect width="512" height="320" fill="none" stroke="none" visibility="hidden"></rect></g></svg></g></svg>